<svg width="104" height="51" viewBox="0 0 104 51" fill="none" xmlns="http://www.w3.org/2000/svg">
<path fill-rule="evenodd" clip-rule="evenodd" d="M12.9771 24.7356L17.7209 27.0484C18.6331 27.4937 18.4924 28.8352 17.5071 29.0809L12.3865 30.3577C11.7481 30.5171 11.1171 30.0765 11.0421 29.4221C10.8848 28.054 11.0307 26.668 11.4696 25.3627C11.5192 25.2164 11.5994 25.0823 11.7049 24.9693C11.8104 24.8564 11.9387 24.7673 12.0814 24.7078C12.224 24.6484 12.3777 24.62 12.5321 24.6247C12.6866 24.6293 12.8383 24.6668 12.9771 24.7346M14.8765 34.4996L18.4071 30.5781C19.0859 29.8234 20.3374 30.3296 20.3009 31.344L20.1171 36.6193C20.1118 36.7743 20.0734 36.9263 20.0046 37.0652C19.9357 37.2041 19.8379 37.3266 19.7178 37.4247C19.5977 37.5227 19.458 37.5939 19.3081 37.6335C19.1582 37.6731 19.0016 37.6802 18.8487 37.6543C17.4922 37.425 16.202 36.9029 15.0678 36.1243C14.9401 36.0366 14.8327 35.9226 14.7527 35.7899C14.6727 35.6573 14.6219 35.5091 14.6038 35.3553C14.5857 35.2015 14.6007 35.0456 14.6477 34.898C14.6947 34.7504 14.7727 34.6146 14.8765 34.4996ZM23.2474 29.2815L28.2659 30.9127C28.8903 31.1152 29.1949 31.8221 28.9128 32.4146C28.3197 33.6561 27.4633 34.7534 26.4031 35.6302C26.2836 35.7291 26.1444 35.8013 25.9947 35.8419C25.845 35.8826 25.6884 35.8908 25.5354 35.8659C25.3823 35.841 25.2363 35.7837 25.1072 35.6978C24.9781 35.6119 24.8689 35.4993 24.7868 35.3677L21.9893 30.8912C21.4512 30.0306 22.2818 28.9674 23.2474 29.2815ZM28.3512 26.0799L23.2784 27.5349C22.3024 27.8143 21.5093 26.7231 22.0765 25.8812L25.0287 21.5059C25.115 21.3778 25.2276 21.2695 25.359 21.1883C25.4904 21.1071 25.6376 21.0548 25.7908 21.035C25.9439 21.0151 26.0996 21.0281 26.2474 21.0731C26.3951 21.1181 26.5316 21.194 26.6478 21.2959C27.6806 22.2069 28.5 23.3342 29.0478 24.5977C29.1097 24.7398 29.1407 24.8935 29.1385 25.0485C29.1363 25.2035 29.1011 25.3563 29.0351 25.4966C28.9692 25.6369 28.8741 25.7615 28.7561 25.8621C28.6382 25.9627 28.5001 26.037 28.3512 26.0799ZM16.4974 13.7706C15.5843 14.0143 14.7134 14.3377 13.8893 14.7306C13.7542 14.7954 13.6339 14.8875 13.5361 15.001C13.4382 15.1146 13.3649 15.2471 13.3207 15.3904C13.2765 15.5336 13.2624 15.6844 13.2793 15.8334C13.2961 15.9823 13.3436 16.1261 13.4187 16.2559L18.3771 24.8434C18.9331 25.8071 20.4059 25.4124 20.4059 24.2996V14.3837C20.4061 14.2338 20.3752 14.0855 20.3154 13.9481C20.2555 13.8107 20.1679 13.6872 20.0581 13.5852C19.9482 13.4833 19.8185 13.4052 19.677 13.3557C19.5355 13.3063 19.3853 13.2867 19.2359 13.2981C18.3265 13.3702 17.4106 13.5259 16.4974 13.7706Z" fill="#0074FF"/>
<path d="M57.4922 31.2578V34H48.9023V31.2578H57.4922ZM50.0391 16.9375V34H46.5234V16.9375H50.0391ZM58.7578 27.7891V27.543C58.7578 26.6133 58.8906 25.7578 59.1562 24.9766C59.4219 24.1875 59.8086 23.5039 60.3164 22.9258C60.8242 22.3477 61.4492 21.8984 62.1914 21.5781C62.9336 21.25 63.7852 21.0859 64.7461 21.0859C65.707 21.0859 66.5625 21.25 67.3125 21.5781C68.0625 21.8984 68.6914 22.3477 69.1992 22.9258C69.7148 23.5039 70.1055 24.1875 70.3711 24.9766C70.6367 25.7578 70.7695 26.6133 70.7695 27.543V27.7891C70.7695 28.7109 70.6367 29.5664 70.3711 30.3555C70.1055 31.1367 69.7148 31.8203 69.1992 32.4062C68.6914 32.9844 68.0664 33.4336 67.3242 33.7539C66.582 34.0742 65.7305 34.2344 64.7695 34.2344C63.8086 34.2344 62.9531 34.0742 62.2031 33.7539C61.4609 33.4336 60.832 32.9844 60.3164 32.4062C59.8086 31.8203 59.4219 31.1367 59.1562 30.3555C58.8906 29.5664 58.7578 28.7109 58.7578 27.7891ZM62.1328 27.543V27.7891C62.1328 28.3203 62.1797 28.8164 62.2734 29.2773C62.3672 29.7383 62.5156 30.1445 62.7188 30.4961C62.9297 30.8398 63.2031 31.1094 63.5391 31.3047C63.875 31.5 64.2852 31.5977 64.7695 31.5977C65.2383 31.5977 65.6406 31.5 65.9766 31.3047C66.3125 31.1094 66.582 30.8398 66.7852 30.4961C66.9883 30.1445 67.1367 29.7383 67.2305 29.2773C67.332 28.8164 67.3828 28.3203 67.3828 27.7891V27.543C67.3828 27.0273 67.332 26.543 67.2305 26.0898C67.1367 25.6289 66.9844 25.2227 66.7734 24.8711C66.5703 24.5117 66.3008 24.2305 65.9648 24.0273C65.6289 23.8242 65.2227 23.7227 64.7461 23.7227C64.2695 23.7227 63.8633 23.8242 63.5273 24.0273C63.1992 24.2305 62.9297 24.5117 62.7188 24.8711C62.5156 25.2227 62.3672 25.6289 62.2734 26.0898C62.1797 26.543 62.1328 27.0273 62.1328 27.543ZM80.8711 21.3203H83.9297V33.5781C83.9297 34.7344 83.6719 35.7148 83.1562 36.5195C82.6484 37.332 81.9375 37.9453 81.0234 38.3594C80.1094 38.7812 79.0469 38.9922 77.8359 38.9922C77.3047 38.9922 76.7422 38.9219 76.1484 38.7812C75.5625 38.6406 75 38.4219 74.4609 38.125C73.9297 37.8281 73.4844 37.4531 73.125 37L74.6133 35.0078C75.0039 35.4609 75.457 35.8125 75.9727 36.0625C76.4883 36.3203 77.0586 36.4492 77.6836 36.4492C78.293 36.4492 78.8086 36.3359 79.2305 36.1094C79.6523 35.8906 79.9766 35.5664 80.2031 35.1367C80.4297 34.7148 80.543 34.2031 80.543 33.6016V24.25L80.8711 21.3203ZM72.3398 27.8125V27.5664C72.3398 26.5977 72.457 25.7188 72.6914 24.9297C72.9336 24.1328 73.2734 23.4492 73.7109 22.8789C74.1562 22.3086 74.6953 21.8672 75.3281 21.5547C75.9609 21.2422 76.6758 21.0859 77.4727 21.0859C78.3164 21.0859 79.0234 21.2422 79.5938 21.5547C80.1641 21.8672 80.6328 22.3125 81 22.8906C81.3672 23.4609 81.6523 24.1367 81.8555 24.918C82.0664 25.6914 82.2305 26.5391 82.3477 27.4609V28C82.2305 28.8828 82.0547 29.7031 81.8203 30.4609C81.5859 31.2188 81.2773 31.8828 80.8945 32.4531C80.5117 33.0156 80.0352 33.4531 79.4648 33.7656C78.9023 34.0781 78.2305 34.2344 77.4492 34.2344C76.668 34.2344 75.9609 34.0742 75.3281 33.7539C74.7031 33.4336 74.168 32.9844 73.7227 32.4062C73.2773 31.8281 72.9336 31.1484 72.6914 30.3672C72.457 29.5859 72.3398 28.7344 72.3398 27.8125ZM75.7148 27.5664V27.8125C75.7148 28.3359 75.7656 28.8242 75.8672 29.2773C75.9688 29.7305 76.125 30.1328 76.3359 30.4844C76.5547 30.8281 76.8242 31.0977 77.1445 31.293C77.4727 31.4805 77.8594 31.5742 78.3047 31.5742C78.9219 31.5742 79.4258 31.4453 79.8164 31.1875C80.207 30.9219 80.5 30.5586 80.6953 30.0977C80.8906 29.6367 81.0039 29.1055 81.0352 28.5039V26.9688C81.0195 26.4766 80.9531 26.0352 80.8359 25.6445C80.7188 25.2461 80.5547 24.9062 80.3438 24.625C80.1328 24.3438 79.8594 24.125 79.5234 23.9688C79.1875 23.8125 78.7891 23.7344 78.3281 23.7344C77.8828 23.7344 77.4961 23.8359 77.168 24.0391C76.8477 24.2344 76.5781 24.5039 76.3594 24.8477C76.1484 25.1914 75.9883 25.5977 75.8789 26.0664C75.7695 26.5273 75.7148 27.0273 75.7148 27.5664ZM86.0156 27.7891V27.543C86.0156 26.6133 86.1484 25.7578 86.4141 24.9766C86.6797 24.1875 87.0664 23.5039 87.5742 22.9258C88.082 22.3477 88.707 21.8984 89.4492 21.5781C90.1914 21.25 91.043 21.0859 92.0039 21.0859C92.9648 21.0859 93.8203 21.25 94.5703 21.5781C95.3203 21.8984 95.9492 22.3477 96.457 22.9258C96.9727 23.5039 97.3633 24.1875 97.6289 24.9766C97.8945 25.7578 98.0273 26.6133 98.0273 27.543V27.7891C98.0273 28.7109 97.8945 29.5664 97.6289 30.3555C97.3633 31.1367 96.9727 31.8203 96.457 32.4062C95.9492 32.9844 95.3242 33.4336 94.582 33.7539C93.8398 34.0742 92.9883 34.2344 92.0273 34.2344C91.0664 34.2344 90.2109 34.0742 89.4609 33.7539C88.7188 33.4336 88.0898 32.9844 87.5742 32.4062C87.0664 31.8203 86.6797 31.1367 86.4141 30.3555C86.1484 29.5664 86.0156 28.7109 86.0156 27.7891ZM89.3906 27.543V27.7891C89.3906 28.3203 89.4375 28.8164 89.5312 29.2773C89.625 29.7383 89.7734 30.1445 89.9766 30.4961C90.1875 30.8398 90.4609 31.1094 90.7969 31.3047C91.1328 31.5 91.543 31.5977 92.0273 31.5977C92.4961 31.5977 92.8984 31.5 93.2344 31.3047C93.5703 31.1094 93.8398 30.8398 94.043 30.4961C94.2461 30.1445 94.3945 29.7383 94.4883 29.2773C94.5898 28.8164 94.6406 28.3203 94.6406 27.7891V27.543C94.6406 27.0273 94.5898 26.543 94.4883 26.0898C94.3945 25.6289 94.2422 25.2227 94.0312 24.8711C93.8281 24.5117 93.5586 24.2305 93.2227 24.0273C92.8867 23.8242 92.4805 23.7227 92.0039 23.7227C91.5273 23.7227 91.1211 23.8242 90.7852 24.0273C90.457 24.2305 90.1875 24.5117 89.9766 24.8711C89.7734 25.2227 89.625 25.6289 89.5312 26.0898C89.4375 26.543 89.3906 27.0273 89.3906 27.543Z" fill="#0074FF"/>
</svg>
